<?xml version="1.0" standalone="no"?>
<!DOCTYPE svg PUBLIC "-//W3C//DTD SVG 20010904//EN"
 "http://www.w3.org/TR/2001/REC-SVG-20010904/DTD/svg10.dtd">
<svg version="1.0" xmlns="http://www.w3.org/2000/svg"
 width="700.000000pt" height="700.000000pt" viewBox="0 0 700.000000 700.000000"
 preserveAspectRatio="xMidYMid meet">
<metadata>
Created by potrace 1.14, written by Peter Selinger 2001-2017
</metadata>
<g transform="translate(0.000000,700.000000) scale(0.100000,-0.100000)"
fill="#000000" stroke="none">
<path d="M1679 5790 c-712 -484 -1306 -894 -1321 -910 -30 -33 -36 -72 -17
-114 7 -14 117 -110 246 -212 l234 -187 -190 -192 c-184 -184 -191 -193 -191
-231 0 -22 8 -51 17 -64 9 -14 105 -131 213 -260 107 -129 201 -243 209 -252
11 -15 11 -19 -5 -24 -48 -17 -159 -101 -199 -151 -180 -221 -165 -533 35
-733 110 -111 235 -160 405 -160 l85 0 0 -142 c0 -240 21 -364 85 -519 63
-150 192 -314 320 -404 101 -71 1229 -743 1308 -779 90 -41 202 -77 317 -102
120 -26 420 -26 540 0 119 25 231 62 325 106 85 39 1158 677 1283 763 145 99
277 267 346 438 54 132 67 211 73 437 l6 202 89 0 c165 0 289 50 398 160 200
201 216 507 39 729 -42 53 -143 132 -193 151 -25 9 -27 12 -15 28 8 9 102 123
209 252 108 129 204 246 213 260 9 13 17 42 17 64 0 38 -7 47 -190 231 l-190
191 233 186 c128 103 239 199 245 213 17 36 15 76 -4 104 -21 29 -1638 1486
-1679 1513 -20 12 -41 17 -62 14 -18 -2 -152 -74 -298 -160 -162 -94 -267
-150 -270 -143 -2 7 -22 124 -45 261 -22 136 -45 257 -51 267 -22 41 -98 61
-142 37 -12 -6 -145 -104 -297 -218 -151 -113 -281 -210 -289 -214 -9 -6 -75
53 -230 207 -119 118 -226 220 -238 226 -12 6 -35 11 -51 11 -22 0 -337 -209
-1323 -880z m1794 175 c15 -4 38 -4 52 -1 13 3 142 94 285 202 144 108 264
194 266 191 3 -3 23 -112 45 -243 21 -132 45 -250 51 -262 15 -30 58 -52 98
-52 22 0 118 51 331 176 165 96 304 174 309 172 12 -4 1478 -1321 1479 -1329
1 -3 -95 -81 -211 -175 -266 -211 -268 -213 -268 -272 l0 -46 196 -197 c181
-182 195 -199 183 -216 -8 -11 -108 -133 -224 -271 -180 -216 -214 -252 -237
-252 l-27 0 -3 240 -3 240 -30 29 c-31 31 -1180 818 -1236 846 -18 10 -43 15
-59 12 -15 -3 -226 -128 -469 -276 -243 -149 -444 -271 -446 -271 -1 0 -63
150 -136 333 -72 182 -141 349 -151 370 -22 44 -73 71 -114 61 -43 -11 -1886
-1044 -1919 -1075 l-30 -29 -3 -240 -3 -240 -27 0 c-23 0 -58 37 -237 252
-116 138 -216 260 -224 271 -12 17 2 35 183 216 187 189 196 200 196 237 0 21
-8 51 -18 66 -9 15 -114 104 -232 199 -118 94 -214 173 -213 176 1 2 534 366
1184 809 l1183 805 225 -225 c144 -143 236 -227 254 -231z m-213 -1612 c156
-392 168 -413 238 -413 31 0 113 46 511 289 l473 290 137 -94 c75 -51 321
-219 546 -373 l410 -280 0 -928 c0 -1028 3 -979 -65 -1131 -54 -118 -157 -243
-260 -313 -78 -52 -1164 -702 -1228 -734 -261 -131 -612 -153 -905 -54 -51 16
-114 42 -142 55 -27 14 -318 186 -645 382 -486 291 -607 368 -664 421 -106
100 -178 218 -222 365 -17 55 -18 131 -21 995 l-3 935 847 472 c467 260 849
473 849 473 1 0 66 -161 144 -357z m-2060 -1513 l0 -330 -37 0 c-71 1 -174 20
-214 40 -59 30 -111 82 -145 142 -27 49 -29 61 -29 153 0 93 2 104 31 155 65
114 166 169 312 170 l82 0 0 -330z m4845 300 c73 -35 138 -105 165 -176 18
-48 21 -73 18 -139 -7 -123 -62 -211 -170 -270 -47 -26 -65 -30 -155 -33
l-103 -4 0 327 0 327 98 -4 c77 -3 107 -9 147 -28z"/>
<path d="M2400 3820 c-81 -13 -167 -47 -190 -77 -12 -16 -20 -41 -20 -65 0
-32 7 -47 35 -75 32 -32 39 -35 78 -30 23 4 67 13 97 22 69 19 160 19 230 0
123 -34 168 -28 195 26 32 61 13 124 -48 156 -79 40 -262 61 -377 43z"/>
<path d="M4370 3820 c-81 -13 -167 -47 -190 -77 -39 -50 -18 -139 39 -163 33
-13 53 -12 151 15 75 20 197 16 269 -9 68 -25 98 -21 137 18 46 46 48 104 6
146 -58 57 -268 93 -412 70z"/>
<path d="M2430 3161 c-92 -30 -171 -97 -211 -179 -33 -66 -34 -205 -2 -274 32
-70 107 -141 179 -168 85 -32 198 -26 273 15 114 63 175 173 169 305 -6 125
-72 227 -183 279 -54 26 -177 38 -225 22z"/>
<path d="M4380 3154 c-136 -50 -220 -167 -220 -310 0 -122 64 -230 171 -289
75 -41 188 -47 273 -15 72 27 147 98 179 168 32 69 31 208 -2 274 -31 63 -88
121 -153 154 -68 35 -180 43 -248 18z"/>
<path d="M2694 1961 c-45 -19 -64 -59 -64 -131 0 -196 116 -412 293 -544 171
-127 359 -189 577 -189 171 0 296 30 450 109 253 130 420 378 420 625 0 62 -3
72 -29 101 -25 28 -36 33 -75 33 -72 0 -96 -30 -113 -147 -18 -124 -63 -218
-147 -302 -230 -234 -632 -270 -916 -81 -139 92 -220 219 -243 383 -11 75 -19
98 -39 118 -26 27 -81 39 -114 25z"/>
</g>
</svg>
